<svg xmlns="http://www.w3.org/2000/svg" viewBox="0 0 64 64" role="img" aria-label="Roaring Bitmap Visualization">
  <defs>
    <linearGradient id="bg" x1="0" y1="0" x2="1" y2="1">
      <stop offset="0" stop-color="#1e242c"/>
      <stop offset="1" stop-color="#0b0d10"/>
    </linearGradient>
    <linearGradient id="bit" x1="0" y1="0" x2="1" y2="1">
      <stop offset="0" stop-color="#7a9bea"/>
      <stop offset="1" stop-color="#4f7bd4"/>
    </linearGradient>
  </defs>
  <rect width="64" height="64" rx="12" ry="12" fill="url(#bg)"/>
  <g fill="url(#bit)">
    <rect x="8"  y="8"  width="10" height="10" rx="2"/>
    <rect x="34" y="8"  width="10" height="10" rx="2"/>
    <rect x="46" y="8"  width="10" height="10" rx="2"/>
    <rect x="20" y="20" width="10" height="10" rx="2"/>
    <rect x="32" y="20" width="10" height="10" rx="2"/>
    <rect x="44" y="20" width="10" height="10" rx="2"/>
    <rect x="8"  y="32" width="10" height="10" rx="2"/>
    <rect x="20" y="32" width="10" height="10" rx="2"/>
    <rect x="32" y="32" width="10" height="10" rx="2"/>
    <rect x="44" y="32" width="10" height="10" rx="2"/>
    <rect x="8"  y="44" width="10" height="10" rx="2"/>
    <rect x="32" y="44" width="10" height="10" rx="2"/>
  </g>
  <g fill="#2a323d">
    <rect x="20" y="8"  width="10" height="10" rx="2"/>
    <rect x="8"  y="20" width="10" height="10" rx="2"/>
    <rect x="20" y="44" width="10" height="10" rx="2"/>
    <rect x="44" y="44" width="10" height="10" rx="2"/>
  </g>
</svg>
