<svg xmlns="http://www.w3.org/2000/svg" width="400" height="400" fill-rule="evenodd" xmlns:v="https://vecta.io/nano"><path d="M67.609 48.5c.008.421 1.939 2.875 6.538 8.308L83.758 68.4l4.679 5.645c.86 1.015 2.118 2.545 2.796 3.4 1.698 2.144 4.044 4.957 4.777 5.731.336.355 1.686 1.99 3 3.634s2.582 3.17 2.817 3.39 1.224 1.388 2.2 2.596l2.644 3.2c.478.552 1.468 1.754 2.2 2.67l6.328 7.734c.133.11 1.313 1.544 2.622 3.186s2.649 3.275 2.979 3.629c1.042 1.117 2.525 2.885 5.188 6.185l2.803 3.4c.121.11 1.025 1.19 2.009 2.4l1.995 2.4c.231.223 5.13 6.123 7.142 8.6l4.367 5.4 3.563 4.31c.273.28 1.179 1.36 2.014 2.4s1.713 2.07 1.95 2.29c.867.806 2.885 3.643 3.698 5.2a16.72 16.72 0 0 0 1.953 2.844c.615.684 2.558 3.012 4.318 5.173l3.8 4.57c.33.354 1.67 1.986 2.978 3.628s2.572 3.165 2.809 3.385.806.885 1.262 1.478c1.048 1.359 4.525 5.44 5.451 6.398.385.398.7.825.7.948 0 .22 5.396 6.792 6.22 7.576.232.22 1.116 1.3 1.966 2.4s1.741 2.18 1.98 2.4 1.145 1.3 2.013 2.4c1.345 1.702 6.778 7.987 7.435 8.6.118.11 1.315 1.55 2.659 3.2l3.586 4.278a90.84 90.84 0 0 1 2.341 2.76c.66.815 1.478 1.77 1.818 2.122s1.415 1.63 2.387 2.84 2.27 2.697 2.882 3.303 1.113 1.217 1.113 1.356.675.996 1.5 1.906 2.31 2.627 3.3 3.815 2.076 2.443 2.413 2.79 1.316 1.53 2.175 2.63 1.888 2.322 2.287 2.716.725.888.725 1.1c0 1.311 1.101.294 10.4-9.609l6.8-7.226c11.517-12.13 13.322-14.178 14.407-16.349l1.554-3.032c1.653-3.108.688-13.505-1.577-17-.214-.33-.508-.87-.652-1.2-.351-.799-5.296-6.279-14.956-16.576l-5.2-5.618-4.232-4.6c-3.79-4.067-5.14-5.664-5.744-6.789-.543-1.012-4.015-4.942-9.4-10.643l-5.2-5.638-5.451-5.928-4-4.329c-.962-1.057-3.013-3.241-4.557-4.853s-3.69-3.943-4.768-5.179-2.171-2.247-2.428-2.247c-.482 0-4.374-3.954-10.996-11.171l-5-5.419-9.8-10.574-5-5.427-10-10.777-4.8-5.21c-1.996-2.097-10.291-11.085-12-13.002a85.09 85.09 0 0 0-3.1-3.276c-.825-.815-1.5-1.765-1.5-2.113 0-.569-3.062-.631-31.4-.631-24.858 0-31.398.104-31.391.5M155 243.918c-.44.375-2.24 2.392-4 4.482l-3.405 4c-.114.11-1.014 1.185-2 2.389l-2.395 2.834c-.33.355-1.32 1.519-2.2 2.587l-4.208 4.99c-.352.335-8.126 9.623-9.169 10.954-.537.685-1.617 1.971-2.4 2.856l-3.095 3.6-10.267 12.193-2.01 2.4-2.667 3.197-4.045 4.8-2.743 3.2c-.339.316-8.09 9.573-9.173 10.954-.537.685-1.617 1.976-2.4 2.868-1.759 2.004-2.631 3.032-6.429 7.579l-4.071 4.799c-.585.66-1.662 1.955-2.394 2.877s-3.534 4.279-6.229 7.46-4.9 6.071-4.9 6.423c0 .581 2.849.64 31 .64 26.648 0 31-.08 31-.573 0-.316.855-1.456 1.9-2.535l13.571-14.341 13.329-14.162L165.398 310l8.854-9.4 7.213-7.654 5.735-6.145c4.831-5.165 4.675-4.917 3.725-5.904-.399-.414-2.795-2.979-5.325-5.7l-6.2-6.588c-.88-.903-3.31-3.494-5.4-5.759l-5.2-5.609-11.864-12.723c-1.088-1.227-1.17-1.253-1.936-.6" fill="#94474b"/><path d="M48 200v152h7.757c7.705 0 7.758-.006 8-.9.134-.495.918-1.638 1.743-2.539 1.85-2.022 4.216-4.808 6.758-7.961 1.065-1.32 2.432-2.889 3.039-3.487s1.103-1.263 1.103-1.48.228-.537.506-.713 1.313-1.305 2.3-2.509 2.064-2.479 2.394-2.834 1.32-1.519 2.2-2.587l2.8-3.357 2.2-2.595a51.84 51.84 0 0 1 1.7-1.909c.385-.401.7-.909.7-1.129s.143-.4.318-.4.975-.855 1.777-1.9 1.965-2.46 2.583-3.144a123.41 123.41 0 0 0 2.722-3.176l2.8-3.347 2.2-2.595c.55-.649 1.27-1.469 1.6-1.823s1.677-1.987 2.994-3.629 2.891-3.475 3.5-4.073 1.106-1.263 1.106-1.48.228-.537.506-.713 1.313-1.305 2.3-2.509 2.064-2.479 2.394-2.834c.671-.721 2.945-3.443 4.668-5.586 1.236-1.539 3.131-3.715 4.232-4.862.385-.401.7-.909.7-1.129s.143-.4.318-.4.975-.855 1.777-1.9 1.965-2.458 2.583-3.141c1.494-1.652 2.735-3.111 4.897-5.759 1.88-2.301 3.411-4.096 4.425-5.187.33-.355 1.314-1.538 2.187-2.629 1.509-1.887 3.176-3.812 4.713-5.442.385-.408.7-.922.7-1.142s.143-.4.318-.4.972-.855 1.771-1.9 1.844-2.316 2.322-2.825c.986-1.052 1.057-.914-2.211-4.278-.88-.906-3.67-3.886-6.2-6.622l-5.8-6.231c-8.599-9.003-11.868-12.624-13.695-15.169-.777-1.082-2.105-3.79-2.105-4.293 0-.307-.289-1.139-.643-1.848-.94-1.884-.91-10.666.044-12.974 2.617-6.33 2.205-5.798 15.199-19.632.66-.703 1.994-2.167 2.965-3.253 2.331-2.607 10.287-11.19 11.935-12.873 1.406-1.437 1.649-2.393.7-2.757-.33-.127-.6-.391-.6-.588s-.315-.683-.7-1.081c-1.28-1.324-4.687-5.374-5.664-6.734-.53-.738-1.115-1.342-1.3-1.342s-.336-.27-.336-.6-.143-.6-.318-.6-1.003-.899-1.841-1.998-1.952-2.404-2.475-2.9-.955-1.037-.959-1.202-.322-.628-.707-1.029c-1.134-1.181-2.562-2.879-5.108-6.071-1.315-1.65-2.593-3.18-2.838-3.4s-1.146-1.3-2-2.4-2.029-2.54-2.609-3.2-1.798-2.1-2.706-3.2-1.917-2.285-2.244-2.634-.595-.759-.595-.913-.496-.769-1.103-1.366-1.975-2.167-3.041-3.487l-6.456-7.811-2.8-3.39c-1.294-1.624-4.978-6.094-7.418-9l-2.779-3.4c-1.732-2.184-4.075-4.996-4.813-5.775-.336-.355-1.686-1.99-3-3.634s-2.582-3.17-2.817-3.39-1.224-1.39-2.198-2.6l-2.173-2.66c-.221-.252-.942-1.139-1.602-1.971s-1.475-1.799-1.81-2.151-1.686-1.984-3-3.628-2.585-3.17-2.824-3.39-1.136-1.3-1.993-2.4-2.065-2.536-2.682-3.192-1.224-1.6-1.35-2.1L66.713 48h-9.356H48v152m83.2-151.387c0 .336.27.716.6.842s.6.38.6.562 1.23 1.597 2.733 3.142l6.1 6.468L146 64.803l4.6 4.99 4.6 4.961 10.2 11.029 4.6 4.974 10 10.807 9.297 10.023 2.8 2.986 2.398-2.586 5.652-6.01 6.653-7.189 5.864-6.376 4-4.262 9.959-10.75 9.577-10.369 5.4-5.849 9.9-10.648C254.149 47.786 259.185 48 192 48l-60.8.613m184-.171c0 .398-1.697 2.79-3.092 4.358-1.074 1.208-2.577 3.045-4.007 4.9-.806 1.045-1.608 1.9-1.783 1.9s-.318.255-.318.567-.157.626-.35.7-1.486 1.573-2.875 3.333-2.731 3.38-2.981 3.6-1.417 1.66-2.594 3.2-2.336 2.98-2.575 3.2-1.778 2.11-3.421 4.2l-3.243 4c-.141.11-1.372 1.608-2.737 3.329l-3.211 4-7.58 9.242c-1.412 1.776-2.682 3.319-2.822 3.429s-1.306 1.55-2.591 3.2-2.54 3.18-2.787 3.4-1.786 2.11-3.419 4.2-3.177 3.98-3.43 4.2-1.343 1.57-2.422 3-2.239 2.877-2.578 3.216-1.67 1.958-2.959 3.6-2.545 3.164-2.791 3.384-1.676 1.983-3.176 3.917-3.037 3.824-3.414 4.2-1.654 1.943-2.835 3.483-2.35 2.98-2.595 3.2-1.824 2.138-3.508 4.263-3.244 3.975-3.466 4.112c-.791.489.161 1.843 4.36 6.196 1.957 2.029 3.761 3.974 12.039 12.979l3.561 3.85c9.064 9.705 10.755 11.764 10.788 13.129.006.29.282.798.612 1.128s.6 1.015.6 1.521.27 1.687.6 2.622c.804 2.279.742 5.595-.168 9.015-1.416 5.32-3.263 7.923-12.09 17.035l-7.742 8.198-10.76 11.481c-2.127 2.229-2.13 2.24-.94 3.53a75.75 75.75 0 0 1 2.049 2.359l5.061 5.953c.336.357 1.686 1.988 3 3.625l2.99 3.619c.33.354 1.05 1.174 1.6 1.823l2.2 2.595 2.8 3.357c.88 1.068 1.87 2.232 2.2 2.587s1.41 1.625 2.4 2.823l2.4 2.828c.961 1.042 5.327 6.257 6.6 7.884.22.281.94 1.099 1.6 1.819s1.855 2.108 2.655 3.088l2.293 2.781 1.163 1.4c.179.22 1.582 1.84 3.119 3.6s3.509 4.093 4.382 5.184 1.858 2.274 2.188 2.629 1.05 1.176 1.6 1.825l2.2 2.595 2.8 3.357c.88 1.068 1.875 2.232 2.21 2.586s1.686 1.986 3 3.627 2.843 3.435 3.396 3.989 2.084 2.348 3.4 3.986 2.823 3.439 3.348 4c.887.95 2.86 3.291 6.394 7.588.798.971 1.722 2.058 2.052 2.416.768.831 2.568 2.944 4.6 5.4.88 1.063 2.184 2.582 2.898 3.376s1.299 1.757 1.3 2.142c.002.655 1.022.7 15.802.7H352V200 48h-18.4c-13.177 0-18.4.126-18.4.442M186.35 288.846l-6.55 6.933-11.982 12.774-8.418 8.847c-1.54 1.591-3.497 3.682-4.35 4.647-1.725 1.951-10.265 11.011-15.35 16.283-1.815 1.882-3.3 3.474-3.3 3.539s-.585.724-1.3 1.466c-5.412 5.619-7.1 7.536-7.1 8.061 0 .536 7.163.604 63.8.604l63.792-.5c-.005-.275-1.4-1.948-3.1-3.718L237.2 331.463l-3.8-4.051-12.263-13.085c-1.058-1.219-8.935-9.603-13.82-14.709-2.246-2.347-4.431-4.71-4.857-5.25s-2.007-2.256-3.516-3.812l-4.833-5.092c-2.558-2.773-1.486-3.24-7.761 3.382" fill="#fbfbfb"/><path d="M253.6 48.911c0 .501-.315 1.187-.7 1.525s-1.58 1.592-2.656 2.789c-3.379 3.759-8.717 9.51-12.144 13.084-1.815 1.894-3.3 3.549-3.3 3.678s-.315.517-.7.862-2.23 2.306-4.1 4.359-4.615 4.966-6.1 6.476-2.7 2.813-2.7 2.896-1.419 1.653-3.153 3.487-3.669 3.956-4.3 4.717-2.542 2.802-4.247 4.536-3.1 3.206-3.1 3.271-.945 1.106-2.1 2.31a125.27 125.27 0 0 0-3.445 3.745c-2.785 3.217-7.416 7.972-8.22 8.44-.622.362-.674.489-.203.5.347.008 1.513 1.025 2.592 2.261s3.224 3.567 4.768 5.179l4.557 4.853 4 4.329 5.451 5.928 5.2 5.638c3.197 3.384 8.772 9.494 9.107 9.98.214.31.418.26.671-.167.647-1.09 4.412-5.686 5.432-6.631.544-.505.99-1.022.99-1.149 0-.205 2.172-3.064 3.51-4.619 1.489-1.731 2.673-3.182 3.989-4.888.806-1.045 1.608-1.9 1.783-1.9s.318-.255.318-.567.157-.626.35-.7 1.486-1.573 2.875-3.333 2.731-3.38 2.981-3.6 1.417-1.66 2.594-3.2 2.341-2.98 2.586-3.2 1.509-1.75 2.808-3.4 2.596-3.144 2.884-3.32.522-.497.522-.713.54-.922 1.2-1.567 1.2-1.289 1.2-1.431c0-.227 3.022-4.046 3.616-4.569.125-.11 1.288-1.55 2.585-3.2s2.757-3.45 3.244-4 1.748-2.08 2.803-3.4c2.657-3.328 2.601-3.261 4.052-4.819.715-.767 1.3-1.502 1.3-1.633 0-.225 2.563-3.423 4.124-5.148.399-.44 1.649-2.015 2.779-3.5s2.199-2.7 2.375-2.7.322-.186.322-.413.54-.942 1.2-1.587 1.205-1.314 1.211-1.487.681-1.059 1.5-1.972a86.87 86.87 0 0 0 2.689-3.163 64.98 64.98 0 0 1 2.1-2.5c.495-.547.901-1.104.902-1.236s.586-.88 1.3-1.66a88.37 88.37 0 0 0 2.698-3.136l2-2.453 1.8-2.235c.66-.826 1.515-1.829 1.9-2.229s.7-.869.7-1.04.36-.619.8-.996.8-1.047.8-1.489c0-.798-.218-.804-30-.804h-30v.911M153.523 157.765L150.566 161c-3.07 3.412-9.084 9.852-11.466 12.278-1.485 1.512-2.7 2.83-2.7 2.929s-.585.789-1.3 1.536-2.56 2.766-4.1 4.489-3.115 3.406-3.5 3.74-.7.814-.7 1.068-.27.686-.6.96-.6.814-.6 1.2-.25.91-.557 1.164-.682 1.311-.837 2.349-.449 2.091-.654 2.341c-.599.728-.864 5.401-.405 7.146l.921 3.6c.275 1.1.732 2.238 1.016 2.529s.516.765.516 1.056c0 .702 3.007 4.668 5.663 7.468l4.937 5.351a280.69 280.69 0 0 0 6 6.377c5.763 5.907 11.8 12.523 11.8 12.932 0 .221.27.505.6.632s.6.516.6.866.157.539.349.421.79.317 1.329.968c.834 1.007 3.395 3.765 11.922 12.841l5.2 5.609 5.4 5.759c.88.902 3.67 3.867 6.2 6.588l5.3 5.675c.385.4.7.908.7 1.128s.233.4.519.4 1.77 1.371 3.3 3.046 4.041 4.348 5.581 5.938l12.2 13.001 11.8 12.583 5.13 5.476 11.67 12.519c1.76 1.806 4.905 5.163 6.989 7.46s4.65 5.042 5.7 6.099 1.911 2.272 1.911 2.7c0 .764.565.778 31.4.778 34.583 0 32.482.171 30.3-2.469l-1.5-1.843c-.22-.281-.94-1.104-1.6-1.828s-2.003-2.293-2.985-3.488-2.017-2.316-2.3-2.492-.515-.491-.515-.7-.315-.717-.7-1.128c-1.169-1.248-2.624-2.94-4.508-5.241l-2.392-2.831c-.753-.807-1.956-2.225-4.903-5.78-2.5-3.015-4.814-5.698-7.192-8.34-.822-.913-1.497-1.78-1.5-1.926s-.635-.914-1.405-1.707-1.4-1.525-1.4-1.627-.63-.864-1.401-1.693c-1.877-2.02-2.19-2.384-4.023-4.691-.867-1.091-1.846-2.265-2.176-2.61s-1.23-1.403-2-2.351-1.76-2.128-2.2-2.622-1.61-1.855-2.6-3.023l-3.091-3.567c-.71-.794-1.295-1.556-1.3-1.695s-.684-.966-1.509-1.838c-1.67-1.767-5.553-6.334-7.5-8.822-.22-.281-.957-1.11-1.637-1.842s-2.297-2.662-3.593-4.288-2.809-3.412-3.363-3.966-2.087-2.348-3.407-3.986l-3-3.639c-1.702-1.88-4.422-5.124-6.6-7.872-.22-.277-1.088-1.259-1.929-2.18a92.84 92.84 0 0 1-2.8-3.232l-1.984-2.396c-.393-.462-.627-1.067-.521-1.343.119-.311-.028-.418-.386-.281-.319.123-.58.03-.58-.205s-.326-.749-.725-1.142-1.428-1.616-2.287-2.716-1.838-2.284-2.175-2.63-1.423-1.602-2.413-2.79-2.475-2.905-3.3-3.815-1.5-1.768-1.5-1.906-.501-.749-1.113-1.356-1.909-2.093-2.882-3.303-2.047-2.488-2.387-2.84-1.158-1.307-1.818-2.122a90.84 90.84 0 0 0-2.341-2.76c-.628-.703-2.241-2.628-3.586-4.278l-2.659-3.2c-.657-.613-6.09-6.898-7.435-8.6-.868-1.1-1.774-2.18-2.013-2.4s-1.129-1.3-1.98-2.4-1.734-2.18-1.966-2.4c-.824-.784-6.22-7.356-6.22-7.576 0-.123-.315-.55-.7-.948-.944-.976-4.421-5.061-5.446-6.398-.455-.593-.944-1.168-1.088-1.278s-1.187-1.358-2.32-2.773l-3.427-4.2-3.847-4.627-4.125-4.948c-.906-1.072-1.827-2.257-2.047-2.635-.349-.599-.638-.429-2.277 1.348" fill="#807e6e"/><path d="M253.248 48.6c-.034.44-.824 1.617-1.755 2.615l-6.293 6.796-5.2 5.604-4.8 5.187L219.832 85.4l-9.039 9.775-5.593 6.067-5.4 5.811-5.623 6.033c-1.112 1.163-1.865 2.114-1.673 2.114.377 0 3.768-3.447 7.424-7.548 1.25-1.401 3.217-3.536 4.372-4.744s2.1-2.251 2.1-2.317 1.395-1.537 3.1-3.271 3.616-3.775 4.247-4.536 2.566-2.884 4.3-4.717 3.153-3.403 3.153-3.487 1.215-1.387 2.7-2.896 4.23-4.424 6.1-6.476 3.715-4.014 4.1-4.359.7-.733.7-.862 1.485-1.784 3.3-3.678l11.226-12.066c.399-.464 1.538-1.693 2.529-2.733 1.324-1.388 1.757-2.132 1.629-2.8-.151-.784-.184-.799-.236-.11m60.352.204c0 .442-.36 1.112-.8 1.489s-.8.825-.8.996-.315.639-.7 1.04-1.24 1.403-1.9 2.229l-1.8 2.235-2 2.453a88.37 88.37 0 0 1-2.698 3.136c-.714.78-1.299 1.527-1.3 1.66s-.407.689-.902 1.236a64.98 64.98 0 0 0-2.1 2.5 86.87 86.87 0 0 1-2.689 3.163c-.819.913-1.494 1.8-1.5 1.972s-.551.842-1.211 1.487-1.2 1.359-1.2 1.587-.145.413-.322.413-1.245 1.215-2.375 2.7-2.38 3.06-2.779 3.5c-1.561 1.725-4.124 4.923-4.124 5.148 0 .131-.585.866-1.3 1.633-1.451 1.558-1.395 1.491-4.052 4.819l-2.803 3.4c-.487.55-1.946 2.35-3.244 4l-2.585 3.2c-.594.523-3.616 4.342-3.616 4.569 0 .142-.54.786-1.2 1.431s-1.2 1.35-1.2 1.567-.235.537-.522.713-1.585 1.67-2.884 3.32-2.562 3.18-2.808 3.4-1.409 1.66-2.586 3.2-2.344 2.98-2.594 3.2-1.592 1.84-2.981 3.6-2.683 3.26-2.875 3.333-.35.389-.35.7-.143.567-.318.567-.977.855-1.783 1.9c-1.316 1.706-2.5 3.157-3.989 4.888-1.347 1.566-3.51 4.414-3.51 4.623 0 .129-.505.719-1.123 1.312-1.409 1.352-4.12 4.696-5.088 6.277-1.063 1.735.086.51 3.19-3.402 1.309-1.649 2.506-3.088 2.661-3.198s1.514-1.759 3.021-3.664l9.313-11.536c.126-.11 1.301-1.55 2.612-3.2s2.583-3.18 2.828-3.4 1.409-1.66 2.586-3.2 2.334-2.98 2.57-3.2c.424-.394 4.374-5.259 9.397-11.573 1.412-1.775 2.681-3.317 2.821-3.427s1.323-1.55 2.631-3.2 2.49-3.09 2.627-3.2 1.384-1.64 2.772-3.4 2.635-3.29 2.773-3.4c.232-.185 2.637-3.166 9.176-11.377 1.412-1.773 2.679-3.313 2.815-3.423s2.572-3.08 5.413-6.6l7.185-8.787c1.111-1.312 2.146-2.572 2.3-2.8s.885-1.133 1.625-2.013c4.75-5.65 5.86-7.4 4.695-7.4-.22 0-.4.362-.4.804M170.8 92.925c0 .069.585.654 1.3 1.3l1.3 1.175-1.175-1.3c-1.095-1.212-1.425-1.484-1.425-1.175M154.842 155.2c-.028.33-.814 1.41-1.747 2.4l-6.293 6.8L136 175.965c-6.153 6.502-9.753 10.798-10.86 12.959-1.141 2.228-2.415 6.593-2.219 7.603.143.732.179.699.225-.203.029-.592.217-1.178.417-1.301s.485-1.115.634-2.203.527-2.191.838-2.449.565-.785.565-1.171.27-.926.6-1.2.6-.706.6-.96.315-.735.7-1.068 1.96-2.016 3.5-3.74l4.1-4.489c.715-.747 1.3-1.438 1.3-1.536s1.215-1.417 2.7-2.929c2.845-2.897 9.33-9.865 11.95-12.837a72.46 72.46 0 0 1 2.884-3.074c.847-.834 1.266-1.58 1.147-2.041-.129-.496-.204-.536-.239-.126M240 167.725c0 .069.585.654 1.3 1.3l1.3 1.175-1.175-1.3c-1.095-1.212-1.425-1.484-1.425-1.175m21.701 31.675c.004.88.086 1.193.182.695s.092-1.217-.008-1.6-.179.025-.174.905m-138.86 3.113c-.137 3.729 2.906 9.203 8.283 14.901L149.407 237l5.128 5.459c.209.143.281.638.16 1.101s-.057.74.142.617c.583-.36.417-1.781-.237-2.032-.33-.127-.6-.411-.6-.632 0-.409-6.037-7.025-11.8-12.932a280.69 280.69 0 0 1-6-6.377l-4.937-5.351c-2.656-2.8-5.663-6.766-5.663-7.468 0-.291-.232-.766-.516-1.056s-.743-1.429-1.02-2.529l-.842-3.2-.34-1.2-.041 1.113m105.802 40.12c-.317.826-.345.724.457 1.67l1.971 2.38a92.84 92.84 0 0 0 2.8 3.232c.841.921 1.709 1.903 1.929 2.18 2.178 2.748 4.898 5.992 6.6 7.872.33.364 1.68 2.002 3 3.639s2.853 3.431 3.407 3.986 2.067 2.339 3.363 3.966 2.913 3.556 3.593 4.288 1.417 1.561 1.637 1.842c1.947 2.488 5.83 7.055 7.5 8.822.825.872 1.504 1.7 1.509 1.838s.59.901 1.3 1.695 2.101 2.399 3.091 3.567l2.6 3.023c.44.494 1.43 1.674 2.2 2.622s1.67 2.006 2 2.351 1.309 1.519 2.176 2.61c1.833 2.307 2.146 2.671 4.023 4.691.771.829 1.401 1.591 1.401 1.693s.63.834 1.4 1.627 1.402 1.561 1.405 1.707.678 1.013 1.5 1.926c2.378 2.642 4.692 5.325 7.192 8.34l4.903 5.78c.33.353 1.407 1.628 2.392 2.831 1.884 2.301 3.339 3.993 4.508 5.241.385.411.7.919.7 1.128s.225.524.501.7 1.104 1.04 1.841 1.92l5.851 6.8c.776.88 1.519 2.005 1.652 2.5s.402.9.598.9c.879 0 .135-1.256-2.745-4.638L311 340.405l-3.202-3.762a133.35 133.35 0 0 1-2.2-2.639c-2.156-2.633-3.586-4.32-4.398-5.186-.33-.352-1.409-1.626-2.398-2.829l-2.2-2.63c-.221-.242-1.145-1.322-2.053-2.4l-5.4-6.397-6.349-7.544-3.082-3.616c-.265-.28-1.955-2.285-3.755-4.455l-3.519-4.147c-.135-.11-1.595-1.817-3.245-3.793l-9.95-11.8-8.4-9.973c-.797-.971-1.719-2.056-2.049-2.411s-1.41-1.625-2.4-2.823l-2.4-2.828c-.65-.705-3.209-3.729-5.051-5.969l-5.638-6.696c-2.898-3.421-4.407-5.513-4.257-5.903.127-.332.142-.604.032-.604s-.31.285-.443.633M191.8 282.785c.44.183 3.139 2.827 5.998 5.874l7.8 8.317L209 300.58c.44.456 1.88 1.997 3.201 3.424l7.454 7.996 5.999 6.444c1.575 1.739 10.023 10.736 11.946 12.721.99 1.023 3.836 4.064 6.324 6.758l5.6 6.029 3.676 3.869c1.43 1.506 2.717 3.107 2.86 3.559.252.794.262.792.3-.058.025-.547-.68-1.602-1.871-2.8-1.05-1.057-3.615-3.801-5.7-6.099s-5.229-5.654-6.989-7.46c-2.982-3.059-5.961-6.256-11.67-12.519l-5.13-5.476-11.8-12.583-12.2-13.001-5.581-5.938c-1.794-1.964-3.072-3.037-3.6-3.021-.811.025-.811.029-.019.36" fill="#9f9790"/><path d="M66.8 48.546c0 .514 1.261 2.37 2.211 3.254.236.22 1.125 1.3 1.975 2.4l1.98 2.4c.239.22 1.509 1.745 2.824 3.39l3 3.628c.335.352 1.15 1.32 1.81 2.151l1.602 1.971 2.173 2.66 2.198 2.6c.235.22 1.502 1.745 2.817 3.39l3 3.634c.738.779 3.081 3.591 4.813 5.775l2.779 3.4 7.418 9a170.04 170.04 0 0 0 2.8 3.39l6.456 7.811 3.041 3.487s1.103 1.212 1.103 1.366.268.565.595.913 1.337 1.534 2.244 2.634l2.706 3.2 2.609 3.2s1.754 2.18 2 2.4 1.523 1.75 2.838 3.4l5.108 6.071c.385.401.703.864.707 1.029s.435.706.959 1.202 1.637 1.801 2.475 2.9 1.666 1.998 1.841 1.998.318.27.318.6.151.6.336.6.77.604 1.3 1.342c.977 1.36 4.384 5.41 5.664 6.734.385.398.7.885.7 1.081s.27.461.6.588c.949.364.706 1.32-.7 2.757-1.648 1.683-9.604 10.266-11.935 12.873l-2.965 3.253c-12.994 13.834-12.582 13.302-15.199 19.632-.954 2.308-.984 11.09-.044 12.974.354.709.643 1.541.643 1.848 0 .503 1.328 3.211 2.105 4.293 1.827 2.545 5.096 6.166 13.695 15.169l5.8 6.231 6.2 6.622c3.268 3.364 3.197 3.226 2.211 4.278-.478.509-1.522 1.78-2.322 2.825s-1.596 1.9-1.771 1.9-.318.18-.318.4-.315.734-.7 1.142c-1.537 1.63-3.204 3.555-4.713 5.442-.873 1.091-1.857 2.274-2.187 2.629-1.014 1.091-2.545 2.886-4.425 5.187-2.162 2.648-3.403 4.107-4.897 5.759-.618.683-1.78 2.096-2.583 3.141s-1.602 1.9-1.777 1.9-.318.18-.318.4-.315.728-.7 1.129c-1.101 1.147-2.996 3.323-4.232 4.862-1.723 2.143-3.997 4.865-4.668 5.586-.33.355-1.407 1.631-2.394 2.834s-2.022 2.333-2.3 2.509-.506.497-.506.713-.498.883-1.106 1.48-2.184 2.431-3.5 4.073l-2.994 3.629c-.33.354-1.05 1.174-1.6 1.823l-2.2 2.595-2.8 3.347a123.41 123.41 0 0 1-2.722 3.176c-.618.684-1.78 2.099-2.583 3.144s-1.602 1.9-1.777 1.9-.318.18-.318.4-.315.728-.7 1.129a51.84 51.84 0 0 0-1.7 1.909l-2.2 2.595-2.8 3.357c-.88 1.068-1.87 2.232-2.2 2.587s-1.407 1.631-2.394 2.834-2.022 2.333-2.3 2.509-.506.497-.506.713-.498.883-1.106 1.48-2.184 2.431-3.5 4.073l-2.994 3.629c-.33.354-1.05 1.174-1.6 1.823l-2.3 2.685C63.619 350.806 63.218 352 64 352c.22 0 .406-.225.414-.5.012-.42 3.602-4.926 6.932-8.7.485-.55 1.69-1.99 2.679-3.2l5.189-6.176a394.41 394.41 0 0 0 4.399-5.224l3.215-3.8c.127-.11 1.098-1.274 2.158-2.586l2.371-2.856c.244-.258 1.613-1.867 3.043-3.574l13.341-15.788c.473-.552 1.666-1.992 2.651-3.2 1.713-2.099 3.106-3.73 4.408-5.159.33-.363 1.41-1.645 2.4-2.848l6.532-7.789 8.916-10.6c1.546-1.889 8.013-9.554 9.113-10.8.485-.55 1.934-2.26 3.22-3.8l6.219-7.365c2.93-3.146 4.184-5.323 3.282-5.702-.174-.073-2.456-2.473-5.07-5.333l-18.288-19.586c-6.432-6.815-8.373-10.925-8.407-17.797-.041-8.208 1.845-11.565 13.283-23.652l10.802-11.565 6.293-6.8c1.987-2.11 2.101-2.985.605-4.634-.605-.667-2.175-2.547-3.49-4.179s-2.664-3.254-3-3.604-2.05-2.409-3.81-4.573l-3.609-4.372c-.225-.241-1.568-1.878-2.986-3.638l-2.799-3.4c-.122-.11-1.927-2.27-4.01-4.8l-4.192-5.054c-.222-.25-1.844-2.213-3.604-4.362L113.073 104c-.472-.55-1.928-2.342-3.236-3.982l-3.259-4c-.485-.56-2.298-2.728-4.03-4.817l-4.005-4.8A589.88 589.88 0 0 1 94.4 81.4l-4.143-5.004L87.6 73.2l-2.653-3.196L72.2 54.586l-3.9-4.647c-.385-.407-.7-1.009-.7-1.339s-.18-.6-.4-.6-.4.246-.4.546m63.608-.046c.004.275.859 1.41 1.9 2.523l6.279 6.8 5 5.413c.337.349 2.593 2.77 5.013 5.38l5 5.389 2.572 2.82 5.2 5.59 7.426 8 6.8 7.353 7.602 8.197 6.272 6.785 2.471 2.65 2.129-2.214 5.728-6.133 5.4-5.811 5.593-6.067 9.039-9.775L235.2 68.802l4.8-5.187c.33-.342 2.67-2.864 5.2-5.604l6.293-6.796c.931-.998 1.676-2.175 1.654-2.615-.035-.711-.061-.719-.228-.071-.104.4-.758 1.319-1.454 2.041-2.247 2.332-6.381 6.778-9.865 10.612l-5.4 5.849-9.577 10.369-9.959 10.75-4 4.262-5.864 6.376-6.653 7.189-5.652 6.01-2.398 2.586-2.8-2.986L180 101.564l-10-10.807-4.6-4.974-10.2-11.029-4.6-4.961-4.6-4.99-4.767-5.176-6.1-6.468c-1.503-1.545-2.733-2.959-2.733-3.142s-.27-.435-.6-.562-.6-.506-.6-.842-.18-.613-.4-.613-.396.225-.392.5m183.832.4c-.136.495-1.594 2.52-3.24 4.5l-3.297 4.013c-.166.228-1.212 1.488-2.323 2.8s-4.344 5.267-7.185 8.787l-5.413 6.6c-.136.11-1.403 1.65-2.815 3.423L280.791 90.4c-.138.11-1.386 1.64-2.773 3.4s-2.635 3.29-2.772 3.4-1.319 1.55-2.627 3.2-2.492 3.09-2.631 3.2-1.409 1.652-2.821 3.427L257.77 118.6c-.236.22-1.393 1.66-2.57 3.2s-2.341 2.98-2.586 3.2-1.518 1.75-2.828 3.4l-2.612 3.2c-.273.237-5.446 6.645-9.313 11.536-1.507 1.905-2.866 3.554-3.021 3.664s-1.352 1.55-2.661 3.2l-2.879 3.529c-.881.93-.531 1.82 1.608 4.096l13.496 14.575 9.63 10.333c7.592 8.021 9.844 16.76 6.325 24.545-.418.923-.759 1.797-.759 1.942 0 .53-2.663 3.692-7.379 8.765L245 225.554l-6.828 7.215c-5.75 6.014-9.372 9.96-9.372 10.212 0 .111 2.025 2.592 4.5 5.513l5.649 6.709 5.051 5.969c.33.358 1.41 1.63 2.4 2.828l2.4 2.823c.33.355 1.252 1.44 2.049 2.411l8.4 9.973 9.95 11.8 3.245 3.793c.136.11 1.719 1.976 3.519 4.147l3.755 4.455c.265.281 1.652 1.907 3.082 3.616l6.349 7.544 5.4 6.397 2.053 2.4c.221.243 1.211 1.426 2.2 2.63s2.068 2.477 2.398 2.829c.812.866 2.242 2.553 4.398 5.186l2.2 2.639c.221.244 1.662 1.937 3.202 3.763l5.74 6.757c1.617 1.89 3.091 3.797 3.275 4.237l.334.8.024-.8c.013-.44-.561-1.449-1.275-2.242s-2.018-2.313-2.898-3.376l-4.6-5.4c-.33-.358-1.254-1.445-2.052-2.416l-6.394-7.588c-.525-.561-2.031-2.361-3.348-4s-2.846-3.431-3.4-3.986-2.081-2.349-3.396-3.989-2.664-3.272-3-3.627-1.33-1.518-2.21-2.586l-2.8-3.357-2.2-2.595c-.55-.649-1.27-1.47-1.6-1.825s-1.315-1.538-2.188-2.629-2.845-3.424-4.382-5.184l-3.119-3.6-1.163-1.4-2.293-2.781c-.8-.98-1.995-2.369-2.655-3.088s-1.38-1.538-1.6-1.819c-.898-1.149-4.041-4.933-4.6-5.54-.618-.67-3.024-3.51-5.051-5.961-.632-.765-1.419-1.68-1.749-2.034s-1.32-1.519-2.2-2.587l-2.8-3.357-2.2-2.595c-.55-.649-1.27-1.469-1.6-1.823s-1.675-1.982-2.99-3.619-2.664-3.268-3-3.625c-.586-.624-2.634-3.033-5.061-5.953a75.75 75.75 0 0 0-2.049-2.359c-1.19-1.29-1.187-1.301.94-3.53l10.76-11.481 7.742-8.198c8.827-9.112 10.674-11.715 12.09-17.035.91-3.42.972-6.736.168-9.015-.33-.935-.6-2.115-.6-2.622s-.27-1.191-.6-1.521-.606-.838-.612-1.128c-.033-1.365-1.724-3.424-10.788-13.129l-3.561-3.85L234 159.971c-4.199-4.353-5.151-5.707-4.36-6.196.222-.137 1.782-1.988 3.466-4.112s3.263-4.043 3.508-4.263 1.413-1.66 2.595-3.2 2.457-3.107 2.835-3.483 1.914-2.266 3.414-4.2 2.93-3.697 3.176-3.917 1.502-1.743 2.791-3.384 2.621-3.262 2.959-3.6 1.499-1.786 2.578-3.216 2.169-2.78 2.422-3 1.796-2.11 3.43-4.2 3.172-3.98 3.419-4.2 1.501-1.75 2.787-3.4 2.452-3.09 2.591-3.2 1.41-1.653 2.822-3.429c2.204-2.772 4.559-5.644 7.58-9.242.402-.479 1.847-2.279 3.211-4s2.596-3.219 2.737-3.329 1.6-1.91 3.243-4 3.182-3.98 3.421-4.2 1.398-1.66 2.575-3.2 2.344-2.98 2.594-3.2 1.592-1.84 2.981-3.6 2.683-3.26 2.875-3.333.35-.389.35-.7.143-.567.318-.567.977-.855 1.783-1.9c1.43-1.855 2.933-3.692 4.007-4.9 1.395-1.568 3.092-3.96 3.092-4.358 0-.799-.708-.462-.96.458M189.785 284.1c-.598.715-3.539 3.891-6.536 7.057l-5.849 6.203c-.22.246-2.11 2.246-4.2 4.445l-9 9.554L153.259 323 138.6 338.589l-8.489 8.983c-3.245 3.383-3.885 4.428-2.711 4.428.33 0 .6-.272.6-.604 0-.525 1.688-2.442 7.1-8.061.715-.742 1.3-1.402 1.3-1.466s1.485-1.657 3.3-3.539l14.863-15.73c1.431-1.596 8.978-9.6 12.237-12.979l12-12.764 8.842-9.374 4.241-4.433 2.159 2.339 4.902 5.167c1.509 1.556 3.091 3.271 3.516 3.812s2.611 2.903 4.857 5.25l13.82 14.709c.739.852 8.279 8.897 12.263 13.085l3.977 4.245 12.423 13.276c3.08 3.263 5.722 6.233 5.872 6.6.242.593.275.586.3-.062.015-.401-1.187-1.999-2.672-3.552l-9.376-9.996-6.324-6.758-11.946-12.721-5.999-6.444-7.454-7.996L209 300.58l-3.402-3.604c-14.779-15.769-13.956-15.099-15.813-12.876" fill="#d0a2a5"/></svg>