<svg xmlns="http://www.w3.org/2000/svg" width="293.333" height="293.333" viewBox="0 0 220 220" preserveAspectRatio="xMidYMid meet" xmlns:v="https://vecta.io/nano"><path d="M17.5 5c-.3.5-1.3 1-2.1 1s-2 .5-2.7 1l-3.6 3c-1.3 1.1-2 2-1.6 2s-.2.8-1.3 1.9C5 14.9 4 16.5 4 17.4S3.6 19 3 19c-.7 0-1 31-1 91.1l1 90.4c.6-.3 1 .4 1 1.7 0 2.8 6.2 9.8 11 12.3 3.3 1.7 8.2 1.8 86.5 2.1l88.3.8c2.8.3 5.2.1 5.2-.3s-.8-.7-1.7-.8c-1 0-7.4-.6-14.3-1.2l-22-1.7c-5.2-.3-10.4-.9-11.5-1.4s-4-1.1-6.5-1.4c-10.9-1.3-23.6-3.8-33.5-6.6l-6.2-1.7c-1.3-.3-2.3-.9-2.3-1.4s-.9-.9-2-.9-2-.5-2-1c0-.6-1.1-1-2.5-1s-2.5-.4-2.5-.9-.8-1.2-1.8-1.5c-2.5-.9-11.2-9.2-11.2-10.8 0-.8-.6-2-1.2-2.6-1.6-1.6-1.6-16.4 0-17 .7-.2 1.2-1.2 1.2-2.2s1.3-3.2 2.9-4.9 2.6-3.1 2.3-3.1c-.4 0 1.7-1.6 4.5-3.5 2.9-1.9 5.5-3.5 5.7-3.5.3 0 3.1-1.2 6.3-2.6 22-10 24.3-11.5 24.3-16.6 0-1.7-1-3.8-2.2-5.1-2.2-2.2-10.8-6.7-12.7-6.7-.5 0-3.3-.7-6.2-1.6-13.1-4-13.5-4.2-11.6-4.9 2.8-1.1 25.4 1.2 29.9 3 1.2.5 2 .1 2.5-1.1.3-1.1.9-2.1 1.3-2.4 1.3-1.1 3.8-7.8 5-13.7 2.5-12.6-.9-34.8-6.2-40.7-1-1.1-1.8-2.5-1.8-3.1 0-1.6-7.1-7.9-11.3-9.8-2-1-5.9-2.1-8.7-2.4-5.2-.6-17 1.3-17 2.8 0 .5-.4.9-1 .9-1.2 0-4.5 2.6-7.9 6.4-1.4 1.6-3.2 3.5-3.8 4.2-.7.7-1.3 1.9-1.3 2.8 0 .8-.4 1.8-1 2.1-.5.3-1 1.9-1 3.4s-.5 3.2-1.2 3.9c-1.6 1.6-1.6 28.8.1 30.5.6.6 1.1 2.6 1.1 4.5s.4 3.1 1 2.7c.6-.3 1 .3 1 1.5 0 5.6 10.6 17 19.7 21.2 5.3 2.4 7.6 2.8 14.8 2.8 4.8 0 9.5-.5 10.6-1 1.6-.9 1.9-.7 1.9 1 0 1.5-.7 2-2.4 2-1.4 0-2.7.4-3 .9-1.7 2.7-30.1 1.2-32.6-1.8-.3-.3-2.3-1.5-4.5-2.6s-5.2-3.2-6.6-4.8c-1.5-1.5-3.2-2.7-3.8-2.7s-1.1-.3-1.1-.8c0-.4-1.4-2.1-3-3.9-1.7-1.8-3-3.9-3-4.7 0-.9-.4-1.6-.9-1.6-1.6 0-4.9-8.5-6.7-17.3-1.6-8.3-1.6-9.3 0-17.3 1.4-7.4 4.8-16.8 6.5-18.4.4-.3 1.2-1.7 2-3.2 3.1-6.1 17-17.7 20.4-17 .4.1.7-.2.7-.7 0-1.4 5.8-2.3 18.4-2.8 7.6-.3 12.3 0 12.9.6s1.8 1.1 2.6 1.1c2 0 12.1 5.1 12.1 6.1 0 .5.5.9 1.1.9.7 0 3.2 2 5.7 4.5 2.4 2.5 4.9 4.5 5.4 4.5s.7.4.3.9c-.3.5.2 1.7 1.1 2.5.8.9 2.3 3.9 3.3 6.6 1 2.8 2.1 5.3 2.4 5.7.4.3.7 2.6.7 5 0 2.7.4 4.2 1 3.8s1 2.3 1 7.4c0 4.7-.4 8.1-1 8.1-.5 0-1 1.6-1 3.5 0 3.7-6.6 19.5-8.1 19.5-.5 0-.9.5-.9 1.1 0 1.5 2.6 3.9 4.2 3.9.8 0 2.4.9 3.6 2 1.2 1.2 2.2 1.8 2.2 1.4s1.1.6 2.5 2.2c2.8 3.3 4 8 3.2 12.9-.5 2.9-7.6 15-9.7 16.5-1.1.8-5.6 10-6.9 14.2-1 3-1 4.6 0 7.5 2.1 6.6 4.1 10.6 6.3 12.7 2.7 2.7 10.2 7.6 11.6 7.6.5 0 1 .4 1 1 0 .5.9 1 2 1s2 .3 2 .7c0 .5 2.8 1.6 6.3 2.6l8.2 2.7c2.4 1 6.3 1.9 13 2.9 2.8.5 4.6.9 4 1.1-1 .3 4.2 1.2 14.7 2.5 4.3.6 6.2.4 7.4-.6 2.6-2.2 6.1-8.1 6.6-11.4.3-1.7.9-3.9 1.3-4.9.5-1.1.5-1.7-.1-1.4-.5.4-.9-33.8-1-86.5l-1.2-87.5c-.7-.2-1.2-1-1.2-1.7 0-2.1-6.4-8.2-11-10.5-3.8-2-5.8-2-94.4-2L17.5 5z" fill="#007ca0"/></svg>