<?xml version="1.0" standalone="no"?><!DOCTYPE svg PUBLIC "-//W3C//DTD SVG 1.1//EN" "http://www.w3.org/Graphics/SVG/1.1/DTD/svg11.dtd"><svg t="1606771282899" class="icon" viewBox="0 0 1024 1024" version="1.1" xmlns="http://www.w3.org/2000/svg" p-id="5216" xmlns:xlink="http://www.w3.org/1999/xlink" width="200" height="200"><defs><style type="text/css"></style></defs><path d="M512 0C230.4 0 0 230.4 0 512s230.4 512 512 512 512-230.4 512-512S793.6 0 512 0zM310.4 764.8c-28.8 0-51.2-22.4-51.2-51.2 0-28.8 22.4-51.2 51.2-51.2s51.2 22.4 51.2 51.2c0 28.8-22.4 51.2-51.2 51.2z m208 3.2c0-144-118.4-262.4-262.4-262.4v-112C464 393.6 630.4 560 630.4 768h-112zM720 768c0-256-208-464-464-464v-112c316.8 0 576 256 576 576h-112z" fill="#EC7063" p-id="5217"></path></svg>