<!DOCTYPE svg PUBLIC "-//W3C//DTD SVG 1.1//EN" "http://www.w3.org/Graphics/SVG/1.1/DTD/svg11.dtd">
<!-- Uploaded to: SVG Repo, www.svgrepo.com, Transformed by: SVG Repo Mixer Tools -->
<svg version="1.1" id="_x32_" xmlns="http://www.w3.org/2000/svg" xmlns:xlink="http://www.w3.org/1999/xlink" viewBox="0 0 512 512" xml:space="preserve" width="800px" height="800px" fill="#8e44ad" stroke="#8e44ad">
<g id="SVGRepo_bgCarrier" stroke-width="0"/>
<g id="SVGRepo_tracerCarrier" stroke-linecap="round" stroke-linejoin="round"/>
<g id="SVGRepo_iconCarrier"> <style type="text/css"> .st0{fill:#a93226;} </style> <g> <rect x="249.872" y="175.258" class="st0" width="40" height="64"/> <rect x="321.872" y="135.258" class="st0" width="40" height="104"/> <rect x="393.871" y="95.258" class="st0" width="40" height="144"/> <path class="st0" d="M81.836,113.485c35.43,0,42.524-27.531,42.524-42.547V56.414c0-15.016-7.094-42.539-42.524-42.539 c-35.422,0-42.515,27.523-42.515,42.539v14.523C39.321,85.954,46.414,113.485,81.836,113.485z"/> <path class="st0" d="M227.715,194.039l-39.129,19.078L156,160c-9.554-15.578-21.906-27.734-39.437-27.734H89.836H51.79 c-28.602,0-51.79,24.57-51.79,54.875v157.797h35.016V512h33.882l20.938-152.203L110.782,512h33.883V270.625v-39.75L173.336,264 l54.379-37.922V194.039z"/> <path class="st0" d="M512,48V24h-16H360V0h-32v24H192h-16v24h16v140.078l2.617,4.266L208,185.79V48h272v240H208v-26.602l-16,9.883 V288h-16v24h16h144.25v63.078L281.407,479.79c-7.977,0.804-14.219,7.461-14.219,15.648c0,8.734,7.078,15.813,15.812,15.813 c8.734,0,15.812-7.078,15.812-15.813c0-3.351-1.055-6.446-2.836-9l40.274-76.882V488h16v-76.531l39.492,75.39 c-1.602,2.477-2.554,5.414-2.554,8.578c0,8.734,7.078,15.813,15.812,15.813c8.734,0,15.813-7.078,15.813-15.813 c0-8.367-6.515-15.148-14.742-15.703l-53.82-102.742V312H496h16v-24h-16V48H512z"/> </g> </g>
</svg>