<?xml version="1.0" standalone="no"?>
<!DOCTYPE svg PUBLIC "-//W3C//DTD SVG 20010904//EN"
 "http://www.w3.org/TR/2001/REC-SVG-20010904/DTD/svg10.dtd">
<svg version="1.0" xmlns="http://www.w3.org/2000/svg"
 width="300.000000pt" height="300.000000pt" viewBox="0 0 300.000000 300.000000"
 preserveAspectRatio="xMidYMid meet">
<metadata>
Created by potrace 1.10, written by Peter Selinger 2001-2011
</metadata>
<g transform="translate(0.000000,300.000000) scale(0.100000,-0.100000)"
fill="orange" stroke="none">
<path d="M1440 2755 c-36 -25 -69 -45 -74 -45 -5 0 -29 9 -52 20 -94 46 -97
46 -176 -22 l-71 -62 27 -21 28 -22 -57 -72 c-32 -39 -60 -71 -64 -71 -4 0
-17 7 -29 16 -13 9 -24 14 -26 13 -40 -56 -95 -142 -108 -169 -109 -235 -126
-292 -134 -470 -7 -130 12 -260 46 -315 33 -54 124 -133 166 -144 21 -6 68
-13 104 -17 l65 -6 1 140 0 141 -67 38 c-61 34 -67 41 -62 63 9 41 54 180 57
180 2 0 30 -16 62 -35 32 -19 64 -35 71 -35 7 0 17 17 23 38 6 20 28 70 49
110 l39 73 -62 41 c-33 23 -63 42 -65 44 -5 4 47 91 58 98 5 3 36 -14 69 -39
l61 -44 55 72 c60 79 112 136 195 211 l54 50 -32 28 c-18 16 -29 33 -26 38 3
5 33 26 68 46 34 21 64 39 66 40 13 11 -156 134 -183 134 -6 0 -40 -21 -76
-45z m17 -121 l86 -57 -69 -63 c-38 -35 -74 -63 -80 -64 -6 0 -17 7 -25 16 -7
8 -24 21 -39 29 -26 13 -27 12 -91 -66 -35 -43 -68 -79 -72 -79 -5 0 -24 12
-42 26 l-35 26 47 62 c48 63 211 226 226 226 5 0 47 -25 94 -56z m-467 -536
c33 -23 60 -45 60 -49 0 -16 -40 -99 -48 -99 -4 0 -17 8 -28 18 -10 10 -35 30
-55 45 l-37 28 21 49 c12 28 23 50 24 50 2 0 31 -19 63 -42z"/>
<path d="M1873 2008 c-12 -13 -38 -54 -59 -93 -43 -80 -157 -226 -235 -301
-107 -102 -286 -224 -329 -224 -6 0 -27 -9 -48 -19 -20 -10 -71 -25 -114 -32
-63 -10 -87 -10 -135 1 -72 16 -138 52 -181 99 -26 29 -31 31 -21 11 39 -83
202 -240 329 -317 148 -89 234 -117 365 -116 207 0 384 89 584 292 111 113
207 240 263 350 30 59 37 126 16 153 -17 21 -143 104 -254 167 -103 58 -147
65 -181 29z"/>
<path d="M1047 1793 c-9 -43 -17 -84 -17 -91 0 -12 138 -82 161 -82 5 0 9 6 9
14 0 7 9 42 20 76 11 34 20 68 20 74 0 10 -152 86 -170 86 -3 0 -13 -35 -23
-77z"/>
<path d="M712 754 c4 -118 10 -125 110 -122 l68 2 0 108 0 108 -25 0 c-24 0
-24 -2 -27 -82 -3 -78 -4 -83 -26 -86 -41 -6 -52 14 -52 94 0 73 0 74 -26 74
l-26 0 4 -96z"/>
<path d="M1052 834 c-42 -29 -14 -114 38 -114 21 0 57 -26 48 -35 -9 -10 -48
-10 -79 -1 -20 6 -28 3 -33 -10 -10 -27 19 -44 74 -44 60 0 93 27 88 73 -3 28
-10 35 -55 57 -29 14 -51 30 -50 35 2 6 25 11 50 13 39 3 47 6 47 23 0 16 -7
19 -53 19 -31 0 -61 -6 -75 -16z"/>
<path d="M1344 827 c-22 -19 -28 -34 -32 -80 -4 -52 -2 -58 26 -87 25 -24 39
-30 75 -30 58 0 77 8 77 31 0 16 -7 19 -45 17 -41 -1 -75 13 -75 33 0 5 29 9
65 9 l65 0 0 39 c0 58 -30 91 -85 91 -32 0 -52 -7 -71 -23z m90 -33 c25 -25
19 -34 -24 -34 -41 0 -52 14 -28 38 16 16 33 15 52 -4z"/>
<path d="M1622 741 l3 -106 28 -3 27 -3 0 85 c0 84 0 86 27 92 39 10 53 -16
53 -103 0 -71 1 -73 25 -73 25 0 25 1 25 88 0 123 -7 132 -111 130 l-80 -1 3
-106z"/>
<path d="M1942 743 l3 -108 28 -3 27 -3 0 110 0 111 -30 0 -31 0 3 -107z"/>
<path d="M2110 841 c0 -6 4 -12 8 -15 5 -3 21 -23 36 -45 l28 -40 -36 -51
c-20 -27 -36 -52 -36 -55 0 -3 11 -5 24 -5 17 0 34 12 52 35 l27 36 24 -36
c16 -24 31 -35 48 -35 33 0 31 10 -7 64 l-31 45 37 53 37 53 -28 3 c-26 4 -37
-5 -64 -48 -7 -12 -14 -9 -36 18 -19 22 -37 32 -55 32 -16 0 -28 -4 -28 -9z"/>
<path d="M2326 835 c-3 -9 1 -18 10 -22 19 -7 39 11 30 26 -10 16 -33 13 -40
-4z"/>
<path d="M763 488 c-6 -7 -20 -39 -32 -70 -16 -46 -18 -58 -7 -58 8 0 16 7 20
15 3 8 16 15 29 15 14 0 30 -7 37 -15 16 -19 30 -19 30 0 0 22 -48 125 -58
125 -5 0 -14 -6 -19 -12z m37 -70 c0 -4 -9 -8 -20 -8 -21 0 -24 8 -13 36 6 16
7 16 20 -2 7 -10 13 -21 13 -26z"/>
<path d="M897 493 c-19 -18 -5 -55 28 -74 45 -27 45 -42 0 -37 -28 3 -35 1
-33 -11 4 -19 30 -25 64 -17 21 6 25 12 22 39 -2 23 -10 35 -30 45 -38 18 -36
42 2 42 17 0 30 5 30 10 0 11 -73 14 -83 3z"/>
<path d="M1040 485 c-17 -20 -3 -53 31 -70 39 -21 37 -35 -7 -35 -24 0 -34 -4
-32 -12 7 -20 63 -21 82 -3 25 25 19 44 -19 67 -40 23 -41 44 -1 41 17 -1 26
3 26 13 0 19 -64 19 -80 -1z"/>
<path d="M1192 477 c-29 -31 -28 -72 3 -102 47 -47 115 -19 115 48 0 72 -71
105 -118 54z m77 -11 c7 -8 11 -30 9 -48 -2 -26 -8 -34 -26 -36 -46 -7 -71 48
-36 82 19 20 38 20 53 2z"/>
<path d="M1387 482 c-23 -26 -23 -94 1 -115 19 -18 48 -22 76 -11 27 10 18 24
-17 24 -38 0 -57 15 -57 44 0 34 17 51 50 51 43 0 42 19 -1 23 -24 2 -40 -3
-52 -16z"/>
<path d="M1530 430 c0 -40 4 -70 10 -70 6 0 10 30 10 70 0 40 -4 70 -10 70 -6
0 -10 -30 -10 -70z"/>
<path d="M1653 488 c-6 -7 -20 -39 -32 -70 -16 -46 -18 -58 -7 -58 8 0 16 7
20 15 7 20 45 19 67 -1 33 -30 36 -10 10 55 -27 67 -41 81 -58 59z m37 -70 c0
-4 -9 -8 -20 -8 -21 0 -24 8 -13 36 6 16 7 16 20 -2 7 -10 13 -21 13 -26z"/>
<path d="M1760 491 c0 -5 9 -11 20 -14 17 -4 20 -14 20 -61 0 -43 3 -56 15
-56 12 0 15 13 15 60 0 53 2 60 20 60 11 0 20 5 20 10 0 6 -25 10 -55 10 -30
0 -55 -4 -55 -9z"/>
<path d="M1920 431 c0 -41 4 -71 10 -71 6 0 10 15 11 33 1 17 2 47 2 66 1 20
-3 36 -10 38 -10 4 -13 -14 -13 -66z"/>
<path d="M2022 488 c-32 -41 -24 -109 14 -127 37 -17 58 -14 82 12 26 27 29
73 6 105 -17 25 -84 31 -102 10z m77 -22 c7 -8 11 -30 9 -48 -3 -29 -7 -33
-35 -36 -28 -3 -33 1 -39 23 -14 54 34 99 65 61z"/>
<path d="M2200 430 c0 -78 17 -96 22 -22 l3 47 30 -47 c43 -68 55 -63 55 23 0
44 -4 68 -10 64 -5 -3 -10 -23 -10 -43 l0 -37 -36 43 c-20 23 -40 42 -45 42
-5 0 -9 -31 -9 -70z"/>
</g>
</svg>
