<svg id="svg" version="1.1" xmlns="http://www.w3.org/2000/svg" xmlns:xlink="http://www.w3.org/1999/xlink" width="400" height="391.0204081632653" viewBox="0, 0, 400,391.0204081632653">
    <g id="svgg">
        <path id="path0" d="M0.000 195.695 L 0.000 391.389 200.000 391.389 L 400.000 391.389 400.000 318.493 L 400.000 245.597 390.098 245.733 C 377.083 245.911,375.215 245.123,376.506 239.997 C 379.475 228.205,393.938 226.721,399.042 237.686 L 399.992 239.726 399.996 119.863 L 400.000 0.000 200.000 0.000 L 0.000 0.000 0.000 195.695 M218.136 134.912 C 221.023 136.378,220.893 133.520,220.405 184.901 C 219.832 245.130,219.710 250.217,218.789 252.321 C 217.348 255.610,220.434 255.383,177.299 255.368 L 139.139 255.355 137.529 254.507 C 134.822 253.081,134.487 251.866,134.751 244.443 C 136.698 189.787,168.776 141.436,207.436 134.884 C 213.865 133.795,215.946 133.800,218.136 134.912 M346.590 225.984 C 353.845 229.305,356.376 237.507,350.652 239.148 C 348.872 239.659,334.050 239.634,332.189 239.118 C 325.757 237.331,330.217 227.511,338.524 225.171 C 340.855 224.515,344.094 224.841,346.590 225.984 M300.908 229.318 C 303.015 230.393,305.331 232.767,306.833 235.392 C 308.677 238.615,309.149 238.905,312.029 238.584 C 313.378 238.434,315.362 238.217,316.438 238.102 C 322.921 237.410,330.443 245.721,328.197 251.096 C 327.251 253.360,326.086 253.620,316.901 253.620 C 306.230 253.620,305.526 253.318,305.024 248.509 C 304.610 244.548,302.225 243.429,295.499 244.042 C 289.720 244.567,289.401 245.430,293.362 249.820 C 297.867 254.813,299.431 260.101,297.157 262.647 L 295.977 263.967 288.595 264.298 C 268.526 265.199,266.100 264.206,268.289 255.983 C 269.374 251.905,268.251 250.881,262.695 250.881 C 253.834 250.881,251.316 248.554,254.384 243.205 C 258.705 235.671,266.734 235.317,273.395 242.366 C 276.451 245.600,277.304 245.958,280.452 245.328 C 283.721 244.674,284.266 244.026,284.575 240.425 C 285.348 231.429,293.791 225.688,300.908 229.318 M240.190 234.858 C 242.837 235.856,244.722 238.919,244.031 241.098 C 243.086 244.074,233.381 244.272,232.046 241.342 C 230.332 237.580,235.820 233.210,240.190 234.858 M367.477 244.259 C 371.814 246.903,371.642 250.439,367.096 252.096 C 363.579 253.378,363.271 254.039,364.350 257.978 C 366.263 264.957,364.835 265.734,350.098 265.735 C 337.287 265.735,335.585 265.194,335.643 261.140 C 335.744 254.098,344.324 247.096,351.884 247.886 C 354.479 248.157,356.516 247.669,358.011 246.416 C 361.818 243.226,364.704 242.569,367.477 244.259 M324.823 266.362 C 330.831 269.632,331.878 276.284,326.578 277.513 C 324.608 277.970,314.547 277.974,312.584 277.518 C 308.309 276.526,307.997 272.454,311.883 268.363 C 315.301 264.764,320.430 263.971,324.823 266.362 M376.019 269.262 C 380.731 271.401,380.013 276.240,374.895 276.841 C 368.543 277.588,365.091 274.492,368.180 270.820 C 370.152 268.476,373.030 267.905,376.019 269.262 " stroke="none" fill="#5b5c64" fill-rule="evenodd"></path>
        <path id="path1" d="M206.805 138.183 C 169.657 145.989,140.110 191.397,137.886 244.101 L 137.652 249.649 138.807 250.804 L 139.961 251.959 163.229 252.236 C 195.435 252.619,213.632 252.424,214.747 251.684 C 216.599 250.455,216.498 253.308,217.267 180.950 C 217.722 138.235,217.738 138.700,215.822 137.827 C 214.405 137.181,210.915 137.319,206.805 138.183 " stroke="none" fill="#b0bbc4" fill-rule="evenodd"></path>
        <path id="path2" d="M212.329 134.109 C 173.402 138.910,142.916 177.931,135.775 232.094 C 133.814 246.966,134.270 252.790,137.529 254.507 L 139.139 255.355 177.299 255.368 C 220.434 255.383,217.348 255.610,218.789 252.321 C 219.710 250.217,219.832 245.130,220.405 184.901 C 220.839 139.188,220.838 139.074,220.043 137.278 C 218.932 134.765,216.179 133.634,212.329 134.109 M215.822 137.827 C 217.738 138.700,217.722 138.235,217.267 180.950 C 216.498 253.308,216.599 250.455,214.747 251.684 C 213.632 252.424,195.435 252.619,163.229 252.236 L 139.961 251.959 138.807 250.804 L 137.652 249.649 137.886 244.101 C 139.762 199.649,161.777 158.555,191.816 143.431 C 200.379 139.119,212.466 136.298,215.822 137.827 M338.524 225.171 C 330.217 227.511,325.757 237.331,332.189 239.118 C 336.618 240.348,351.210 239.494,352.900 237.906 C 357.995 233.120,346.490 222.928,338.524 225.171 M292.478 228.982 C 288.082 230.724,285.029 235.144,284.575 240.425 C 284.266 244.026,283.721 244.674,280.452 245.328 C 277.304 245.958,276.451 245.600,273.395 242.366 C 266.734 235.317,258.705 235.671,254.384 243.205 C 251.316 248.554,253.834 250.881,262.695 250.881 C 268.251 250.881,269.374 251.905,268.289 255.983 C 266.100 264.206,268.526 265.199,288.595 264.298 L 295.977 263.967 297.157 262.647 C 299.431 260.101,297.867 254.813,293.362 249.820 C 289.401 245.430,289.720 244.567,295.499 244.042 C 302.225 243.429,304.610 244.548,305.024 248.509 C 305.526 253.318,306.230 253.620,316.901 253.620 C 326.086 253.620,327.251 253.360,328.197 251.096 C 330.443 245.721,322.921 237.410,316.438 238.102 C 315.362 238.217,313.378 238.434,312.029 238.584 C 309.149 238.905,308.677 238.615,306.833 235.392 C 303.386 229.368,297.800 226.873,292.478 228.982 M383.235 231.341 C 376.884 234.514,373.985 243.274,378.643 245.220 C 380.096 245.827,394.389 246.064,398.184 245.544 L 400.000 245.295 399.996 242.510 C 399.984 233.677,390.803 227.559,383.235 231.341 M235.421 235.057 C 231.307 237.191,230.447 241.458,233.843 242.877 C 237.054 244.219,243.391 243.112,244.031 241.098 C 245.314 237.055,239.471 232.955,235.421 235.057 M360.622 244.474 C 359.785 245.040,358.610 245.914,358.011 246.416 C 356.516 247.669,354.479 248.157,351.884 247.886 C 344.324 247.096,335.744 254.098,335.643 261.140 C 335.585 265.194,337.287 265.735,350.098 265.735 C 364.835 265.734,366.263 264.957,364.350 257.978 C 363.271 254.039,363.579 253.378,367.096 252.096 C 369.910 251.070,370.856 249.938,370.481 248.045 C 369.691 244.060,364.183 242.065,360.622 244.474 M316.632 265.313 C 311.098 267.128,307.272 273.593,310.138 276.285 C 312.647 278.642,326.691 278.575,329.071 276.195 C 333.556 271.710,323.622 263.020,316.632 265.313 M370.431 269.044 C 367.613 270.271,366.252 273.619,367.808 275.495 C 369.415 277.433,376.242 277.438,378.177 275.503 C 381.607 272.074,375.385 266.886,370.431 269.044 " stroke="none" fill="#8b94a4" fill-rule="evenodd"></path>
    </g>
</svg>